<?xml version="1.0" encoding="UTF-8"?>
<svg xmlns="http://www.w3.org/2000/svg" xmlns:xlink="http://www.w3.org/1999/xlink" width="100pt" height="141pt" viewBox="0 0 100 141" version="1.1">
<g id="surface1">
<path style=" stroke:none;fill-rule:nonzero;fill:rgb(7.45098%,7.45098%,7.45098%);fill-opacity:1;" d="M 78.363281 5.222656 L 70.066406 5.222656 L 78.695312 14.578125 L 78.695312 19.03125 L 60.921875 19.03125 L 60.921875 13.816406 L 69.546875 13.816406 L 60.921875 4.460938 L 60.921875 0.00390625 L 78.367188 0.00390625 Z M 57.390625 5.222656 L 49.085938 5.222656 L 57.722656 14.578125 L 57.722656 19.03125 L 39.945312 19.03125 L 39.945312 13.816406 L 48.570312 13.816406 L 39.945312 4.460938 L 39.945312 0.00390625 L 57.390625 0.00390625 Z M 36.625 5.4375 L 27.671875 5.4375 L 27.671875 13.605469 L 36.625 13.605469 L 36.625 19.035156 L 21.304688 19.035156 L 21.304688 0.00390625 L 36.625 0.00390625 Z M 36.625 5.4375 "/>
<path style=" stroke:none;fill-rule:nonzero;fill:rgb(8.235294%,44.705882%,71.372549%);fill-opacity:1;" d="M 9.101562 129.675781 L 0 27.71875 L 100 27.71875 L 90.886719 129.65625 L 49.9375 140.996094 Z M 9.101562 129.675781 "/>
<path style=" stroke:none;fill-rule:nonzero;fill:rgb(20%,66.27451%,86.27451%);fill-opacity:1;" d="M 50 132.332031 L 83.089844 123.167969 L 90.871094 36.054688 L 50 36.054688 Z M 50 132.332031 "/>
<path style=" stroke:none;fill-rule:nonzero;fill:rgb(100%,100%,100%);fill-opacity:1;" d="M 50 72.992188 L 66.566406 72.992188 L 67.707031 60.191406 L 50 60.191406 L 50 47.691406 L 81.394531 47.691406 L 81.09375 51.046875 L 78.019531 85.507812 L 50 85.507812 Z M 50 72.992188 "/>
<path style=" stroke:none;fill-rule:nonzero;fill:rgb(92.156863%,92.156863%,92.156863%);fill-opacity:1;" d="M 50.066406 105.46875 L 50.011719 105.46875 L 36.070312 101.707031 L 35.179688 91.734375 L 22.621094 91.734375 L 24.375 111.367188 L 50.023438 118.496094 L 50.097656 118.496094 L 50.097656 105.46875 Z M 50.066406 105.46875 "/>
<path style=" stroke:none;fill-rule:nonzero;fill:rgb(100%,100%,100%);fill-opacity:1;" d="M 65.503906 84.960938 L 63.996094 101.695312 L 50.035156 105.457031 L 50.035156 118.484375 L 75.699219 111.378906 L 75.882812 109.265625 L 78.0625 84.957031 L 65.503906 84.957031 Z M 65.503906 84.960938 "/>
<path style=" stroke:none;fill-rule:nonzero;fill:rgb(92.156863%,92.156863%,92.156863%);fill-opacity:1;" d="M 50.046875 47.691406 L 50.046875 60.195312 L 19.8125 60.195312 L 19.554688 57.386719 L 18.984375 51.046875 L 18.683594 47.691406 Z M 50 72.992188 L 50 85.496094 L 36.21875 85.496094 L 35.972656 82.6875 L 35.402344 76.347656 L 35.105469 72.992188 Z M 50 72.992188 "/>
</g>
</svg>
