<?xml version="1.0" encoding="UTF-8"?>
<svg xmlns="http://www.w3.org/2000/svg" xmlns:xlink="http://www.w3.org/1999/xlink" width="40pt" height="10pt" viewBox="0 0 40 10" version="1.1">
<g id="surface1">
<path style=" stroke:none;fill-rule:nonzero;fill:rgb(0%,20.784314%,27.058824%);fill-opacity:1;" d="M 19.164062 3.410156 L 20.105469 7.054688 L 19.394531 7.054688 L 18.769531 4.429688 L 17.59375 7.054688 L 16.996094 7.054688 L 15.828125 4.445312 L 15.183594 7.054688 L 14.492188 7.054688 L 15.421875 3.410156 L 16.03125 3.410156 L 17.296875 6.234375 L 18.558594 3.410156 Z M 19.164062 3.410156 "/>
<path style=" stroke:none;fill-rule:nonzero;fill:rgb(0%,20.784314%,27.058824%);fill-opacity:1;" d="M 22.773438 4.820312 L 22.773438 4.394531 L 23.457031 4.394531 L 23.457031 7.054688 L 22.773438 7.054688 L 22.773438 6.625 C 22.59375 6.933594 22.222656 7.113281 21.769531 7.113281 C 20.828125 7.113281 20.300781 6.445312 20.300781 5.671875 C 20.300781 4.929688 20.800781 4.332031 21.667969 4.332031 C 22.167969 4.332031 22.578125 4.503906 22.773438 4.820312 Z M 21.027344 5.707031 C 21.027344 6.199219 21.332031 6.617188 21.925781 6.617188 C 22.496094 6.617188 22.808594 6.207031 22.808594 5.722656 C 22.808594 5.234375 22.488281 4.824219 21.894531 4.824219 C 21.324219 4.824219 21.027344 5.238281 21.027344 5.707031 Z M 21.027344 5.707031 "/>
<path style=" stroke:none;fill-rule:nonzero;fill:rgb(0%,20.784314%,27.058824%);fill-opacity:1;" d="M 24.996094 7.054688 L 24.3125 7.054688 L 24.3125 4.394531 L 24.996094 4.394531 L 24.996094 4.988281 C 25.175781 4.582031 25.542969 4.332031 25.949219 4.332031 C 26.097656 4.332031 26.242188 4.355469 26.378906 4.402344 L 26.230469 4.910156 C 26.113281 4.878906 25.992188 4.859375 25.871094 4.859375 C 25.378906 4.859375 24.996094 5.230469 24.996094 5.78125 Z M 24.996094 7.054688 "/>
<path style=" stroke:none;fill-rule:nonzero;fill:rgb(0%,20.784314%,27.058824%);fill-opacity:1;" d="M 26.71875 3.691406 C 26.714844 3.59375 26.753906 3.5 26.824219 3.433594 C 26.894531 3.363281 26.988281 3.328125 27.085938 3.335938 C 27.183594 3.332031 27.277344 3.367188 27.347656 3.4375 C 27.417969 3.507812 27.457031 3.605469 27.457031 3.703125 C 27.457031 3.878906 27.335938 4.058594 27.085938 4.058594 C 26.988281 4.0625 26.890625 4.023438 26.824219 3.953125 C 26.753906 3.886719 26.714844 3.789062 26.71875 3.691406 Z M 26.75 4.394531 L 27.429688 4.394531 L 27.429688 6.339844 C 27.429688 6.460938 27.457031 6.546875 27.558594 6.546875 C 27.601562 6.546875 27.644531 6.539062 27.6875 6.53125 L 27.792969 7.03125 C 27.648438 7.085938 27.496094 7.113281 27.339844 7.113281 C 27.054688 7.113281 26.75 7.027344 26.75 6.375 Z M 26.75 4.394531 "/>
<path style=" stroke:none;fill-rule:nonzero;fill:rgb(0%,20.784314%,27.058824%);fill-opacity:1;" d="M 30.484375 4.820312 L 30.484375 4.394531 L 31.164062 4.394531 L 31.164062 7.054688 L 30.484375 7.054688 L 30.484375 6.625 C 30.300781 6.933594 29.929688 7.113281 29.480469 7.113281 C 28.535156 7.113281 28.007812 6.445312 28.007812 5.671875 C 28.007812 4.929688 28.511719 4.332031 29.378906 4.332031 C 29.875 4.332031 30.289062 4.503906 30.484375 4.820312 Z M 28.734375 5.707031 C 28.734375 6.199219 29.039062 6.617188 29.636719 6.617188 C 30.207031 6.617188 30.519531 6.207031 30.519531 5.722656 C 30.519531 5.234375 30.195312 4.824219 29.605469 4.824219 C 29.03125 4.824219 28.734375 5.238281 28.734375 5.707031 Z M 28.734375 5.707031 "/>
<path style=" stroke:none;fill-rule:nonzero;fill:rgb(0%,20.784314%,27.058824%);fill-opacity:1;" d="M 32.214844 3.410156 L 33.851562 3.410156 C 35.226562 3.410156 35.914062 4.171875 35.902344 5.230469 C 35.914062 6.332031 35.15625 7.054688 33.972656 7.054688 L 32.214844 7.054688 Z M 32.667969 3.730469 L 32.667969 6.738281 L 33.910156 6.738281 C 35.007812 6.738281 35.421875 5.996094 35.421875 5.222656 C 35.421875 4.347656 34.902344 3.730469 33.910156 3.730469 Z M 32.667969 3.730469 "/>
<path style=" stroke:none;fill-rule:nonzero;fill:rgb(0%,20.784314%,27.058824%);fill-opacity:1;" d="M 38.695312 7.054688 L 36.617188 7.054688 L 36.617188 3.410156 L 38.488281 3.410156 C 39.207031 3.410156 39.890625 3.542969 39.878906 4.351562 C 39.878906 4.925781 39.527344 5.082031 39.15625 5.140625 C 39.683594 5.1875 40 5.523438 40 6.070312 C 40.003906 6.890625 39.292969 7.054688 38.695312 7.054688 Z M 38.539062 5 C 39.257812 5 39.417969 4.722656 39.417969 4.367188 C 39.417969 3.839844 39.097656 3.71875 38.539062 3.71875 L 37.046875 3.71875 L 37.046875 5 Z M 38.558594 5.304688 L 37.046875 5.304688 L 37.046875 6.746094 L 38.625 6.746094 C 39.066406 6.746094 39.535156 6.597656 39.535156 6.039062 C 39.53125 5.394531 38.996094 5.308594 38.558594 5.308594 Z M 38.558594 5.304688 "/>
<path style=" stroke:none;fill-rule:nonzero;fill:rgb(0%,20.784314%,27.058824%);fill-opacity:1;" d="M 15.167969 0.0585938 C 15.125 0.0234375 15.074219 0.0078125 15.019531 0.0078125 C 14.871094 0.0078125 14.679688 0.109375 14.578125 0.160156 C 14.5625 0.171875 14.546875 0.175781 14.539062 0.183594 C 14.367188 0.265625 14.179688 0.316406 13.992188 0.324219 C 13.796875 0.328125 13.625 0.339844 13.40625 0.363281 C 12.105469 0.5 11.527344 1.5 10.96875 2.46875 C 10.667969 2.996094 10.351562 3.539062 9.921875 3.964844 C 9.832031 4.050781 9.738281 4.132812 9.640625 4.207031 C 9.195312 4.539062 8.636719 4.773438 8.199219 4.945312 C 7.78125 5.105469 7.324219 5.25 6.878906 5.390625 C 6.476562 5.515625 6.09375 5.640625 5.742188 5.769531 C 5.585938 5.828125 5.449219 5.871094 5.332031 5.914062 C 5.011719 6.019531 4.78125 6.097656 4.441406 6.332031 C 4.3125 6.421875 4.179688 6.519531 4.089844 6.59375 C 3.820312 6.808594 3.585938 7.058594 3.386719 7.339844 C 3.214844 7.597656 3.019531 7.835938 2.796875 8.054688 C 2.726562 8.125 2.601562 8.15625 2.410156 8.15625 C 2.191406 8.15625 1.921875 8.109375 1.636719 8.0625 C 1.34375 8.011719 1.042969 7.957031 0.78125 7.957031 C 0.570312 7.957031 0.410156 7.992188 0.289062 8.0625 C 0.289062 8.0625 0.0859375 8.183594 0 8.335938 L 0.0859375 8.375 C 0.214844 8.445312 0.335938 8.53125 0.445312 8.632812 C 0.558594 8.738281 0.683594 8.828125 0.816406 8.902344 C 0.859375 8.917969 0.898438 8.945312 0.933594 8.980469 C 0.898438 9.03125 0.84375 9.097656 0.789062 9.171875 C 0.492188 9.566406 0.316406 9.816406 0.417969 9.949219 C 0.464844 9.976562 0.515625 9.988281 0.566406 9.988281 C 1.222656 9.988281 1.574219 9.816406 2.015625 9.597656 C 2.144531 9.535156 2.277344 9.472656 2.429688 9.40625 C 2.691406 9.292969 2.96875 9.113281 3.265625 8.917969 C 3.660156 8.664062 4.0625 8.402344 4.457031 8.277344 C 4.78125 8.179688 5.117188 8.128906 5.457031 8.136719 C 5.875 8.136719 6.308594 8.191406 6.730469 8.246094 C 7.046875 8.285156 7.371094 8.328125 7.691406 8.347656 C 7.816406 8.355469 7.929688 8.359375 8.042969 8.359375 C 8.191406 8.359375 8.339844 8.351562 8.488281 8.335938 L 8.523438 8.324219 C 8.75 8.183594 8.855469 7.886719 8.957031 7.601562 C 9.019531 7.414062 9.074219 7.25 9.160156 7.140625 C 9.167969 7.136719 9.171875 7.132812 9.179688 7.125 C 9.1875 7.121094 9.195312 7.125 9.203125 7.132812 C 9.203125 7.132812 9.203125 7.132812 9.203125 7.140625 C 9.148438 8.265625 8.703125 8.976562 8.246094 9.613281 L 7.941406 9.941406 C 7.941406 9.941406 8.367188 9.941406 8.609375 9.847656 C 9.492188 9.582031 10.160156 8.996094 10.644531 8.0625 C 10.765625 7.820312 10.871094 7.574219 10.964844 7.324219 C 10.972656 7.304688 11.050781 7.265625 11.042969 7.375 C 11.042969 7.40625 11.039062 7.441406 11.035156 7.476562 C 11.035156 7.496094 11.03125 7.519531 11.03125 7.542969 C 11.019531 7.695312 10.980469 8.03125 10.980469 8.03125 L 11.253906 7.882812 C 11.914062 7.464844 12.417969 6.621094 12.800781 5.308594 C 12.960938 4.761719 13.078125 4.21875 13.183594 3.738281 C 13.308594 3.167969 13.414062 2.671875 13.539062 2.480469 C 13.730469 2.179688 14.023438 1.976562 14.304688 1.78125 L 14.421875 1.699219 C 14.773438 1.449219 15.128906 1.15625 15.207031 0.617188 L 15.207031 0.605469 C 15.269531 0.210938 15.222656 0.105469 15.167969 0.0585938 Z M 15.167969 0.0585938 "/>
</g>
</svg>
