<?xml version="1.0" encoding="UTF-8"?>
<svg xmlns="http://www.w3.org/2000/svg" xmlns:xlink="http://www.w3.org/1999/xlink" width="60pt" height="30pt" viewBox="0 0 60 30" version="1.1">
<g id="surface1">
<path style=" stroke:none;fill-rule:nonzero;fill:rgb(34.901961%,58.823529%,21.176471%);fill-opacity:1;" d="M 8.074219 2.578125 L 8.617188 3.601562 C 8.738281 3.785156 8.875 3.957031 9.03125 4.113281 C 9.488281 4.570312 9.921875 5.050781 10.308594 5.5625 C 11.234375 6.773438 11.859375 8.121094 12.304688 9.582031 C 12.570312 10.472656 12.714844 11.386719 12.726562 12.308594 C 12.773438 15.070312 11.824219 17.441406 9.910156 19.414062 C 9.597656 19.726562 9.265625 20.011719 8.90625 20.269531 C 8.71875 20.269531 8.628906 20.121094 8.550781 19.992188 C 8.402344 19.742188 8.316406 19.46875 8.273438 19.191406 C 8.207031 18.855469 8.160156 18.523438 8.183594 18.175781 L 8.183594 18.023438 C 8.171875 17.988281 8.003906 2.65625 8.070312 2.578125 Z M 8.074219 2.578125 "/>
<path style=" stroke:none;fill-rule:nonzero;fill:rgb(42.352941%,67.45098%,28.235294%);fill-opacity:1;" d="M 8.074219 2.542969 C 8.050781 2.5 8.027344 2.53125 8.007812 2.554688 C 8.015625 2.777344 7.941406 2.976562 7.816406 3.167969 C 7.683594 3.359375 7.503906 3.5 7.328125 3.65625 C 6.335938 4.515625 5.554688 5.550781 4.933594 6.707031 C 4.109375 8.265625 3.675781 9.9375 3.550781 11.695312 C 3.496094 12.332031 3.753906 14.570312 3.953125 15.214844 C 4.5 16.929688 5.476562 18.367188 6.753906 19.613281 C 7.066406 19.914062 7.398438 20.191406 7.746094 20.460938 C 7.84375 20.460938 7.855469 20.371094 7.878906 20.304688 C 7.921875 20.160156 7.957031 20.015625 7.976562 19.867188 C 8.078125 19.3125 8.132812 18.753906 8.199219 18.199219 L 8.078125 2.542969 Z M 8.074219 2.542969 "/>
<path style=" stroke:none;fill-rule:nonzero;fill:rgb(76.078431%,74.901961%,74.901961%);fill-opacity:1;" d="M 8.621094 20.949219 C 8.640625 20.695312 8.769531 20.484375 8.898438 20.269531 C 8.765625 20.214844 8.664062 20.105469 8.585938 19.980469 C 8.519531 19.871094 8.464844 19.730469 8.417969 19.613281 C 8.261719 19.144531 8.230469 18.65625 8.183594 18.175781 L 8.183594 17.886719 C 8.128906 17.933594 8.117188 18.308594 8.117188 18.367188 C 8.085938 18.878906 8.019531 19.378906 7.917969 19.867188 C 7.886719 20.070312 7.863281 20.269531 7.742188 20.449219 C 7.742188 20.46875 7.742188 20.492188 7.75 20.527344 C 7.953125 21.117188 8.007812 21.71875 8.042969 22.328125 L 8.042969 22.550781 C 8.042969 22.820312 8.03125 22.765625 8.253906 22.851562 C 8.34375 22.886719 8.441406 22.898438 8.53125 22.964844 C 8.597656 22.964844 8.609375 22.910156 8.609375 22.863281 L 8.574219 22.496094 L 8.574219 21.472656 C 8.566406 21.292969 8.597656 21.113281 8.621094 20.949219 Z M 8.621094 20.949219 "/>
<path style=" stroke:none;fill-rule:nonzero;fill:rgb(27.843137%,27.843137%,29.019608%);fill-opacity:1;" d="M 17.074219 16.292969 L 17.074219 17.355469 C 17.074219 17.394531 17.078125 17.4375 17.082031 17.480469 C 17.097656 17.605469 17.171875 17.679688 17.285156 17.714844 C 17.390625 17.746094 17.5 17.765625 17.609375 17.78125 C 17.671875 17.785156 17.691406 17.8125 17.699219 17.882812 C 17.707031 18.117188 17.683594 18.148438 17.457031 18.132812 C 16.917969 18.105469 16.378906 18.097656 15.84375 18.132812 L 15.792969 18.132812 C 15.625 18.140625 15.609375 18.125 15.609375 17.957031 C 15.609375 17.929688 15.617188 17.894531 15.617188 17.867188 C 15.617188 17.816406 15.652344 17.789062 15.703125 17.789062 C 15.8125 17.777344 15.917969 17.75 16.023438 17.726562 C 16.171875 17.691406 16.253906 17.601562 16.269531 17.457031 C 16.289062 17.296875 16.289062 17.128906 16.289062 16.96875 L 16.296875 15.097656 C 16.300781 14.988281 16.242188 14.882812 16.140625 14.832031 C 16.015625 14.761719 15.882812 14.707031 15.742188 14.664062 C 15.703125 14.652344 15.660156 14.644531 15.625 14.621094 C 15.523438 14.574219 15.519531 14.484375 15.617188 14.425781 C 15.652344 14.40625 15.695312 14.390625 15.738281 14.386719 C 16.160156 14.324219 16.574219 14.21875 16.976562 14.070312 C 17.0625 14.042969 17.082031 14.050781 17.089844 14.132812 C 17.097656 14.183594 17.089844 14.246094 17.082031 14.292969 C 17.070312 14.386719 17.070312 14.476562 17.070312 14.558594 C 17.070312 14.59375 17.078125 14.628906 17.113281 14.652344 C 17.144531 14.671875 17.179688 14.652344 17.214844 14.628906 C 17.359375 14.519531 17.507812 14.414062 17.667969 14.324219 C 17.898438 14.199219 18.140625 14.085938 18.40625 14.050781 C 18.730469 14.011719 19.007812 14.09375 19.25 14.304688 C 19.351562 14.394531 19.441406 14.496094 19.515625 14.609375 C 19.585938 14.710938 19.59375 14.714844 19.683594 14.644531 C 19.949219 14.449219 20.230469 14.273438 20.527344 14.148438 C 20.84375 14.015625 21.164062 13.996094 21.484375 14.109375 C 21.8125 14.226562 22.035156 14.457031 22.167969 14.769531 C 22.28125 15.019531 22.328125 15.28125 22.328125 15.550781 L 22.328125 17.421875 C 22.328125 17.546875 22.378906 17.625 22.503906 17.6875 C 22.636719 17.738281 22.78125 17.761719 22.921875 17.792969 C 23.011719 17.8125 23.011719 17.8125 23.011719 17.902344 C 23 18.132812 22.976562 18.148438 22.753906 18.132812 C 22.195312 18.101562 21.632812 18.101562 21.074219 18.132812 C 20.960938 18.140625 20.960938 18.140625 20.957031 18.027344 L 20.957031 17.992188 C 20.949219 17.804688 20.949219 17.804688 21.128906 17.765625 L 21.3125 17.714844 C 21.4375 17.683594 21.527344 17.574219 21.527344 17.441406 L 21.546875 16.917969 L 21.535156 15.550781 C 21.527344 15.429688 21.503906 15.308594 21.457031 15.195312 C 21.28125 14.769531 20.898438 14.617188 20.53125 14.660156 C 20.25 14.6875 20.007812 14.796875 19.777344 14.960938 C 19.726562 14.996094 19.691406 15.035156 19.699219 15.105469 C 19.761719 15.554688 19.71875 16 19.726562 16.445312 L 19.726562 17.414062 C 19.726562 17.589844 19.796875 17.675781 19.964844 17.714844 L 20.285156 17.785156 C 20.335938 17.792969 20.363281 17.8125 20.363281 17.871094 L 20.363281 17.921875 C 20.355469 18.117188 20.34375 18.125 20.144531 18.121094 C 19.589844 18.09375 19.03125 18.101562 18.480469 18.121094 C 18.289062 18.128906 18.273438 18.109375 18.285156 17.917969 C 18.289062 17.804688 18.304688 17.800781 18.410156 17.78125 L 18.640625 17.738281 C 18.84375 17.695312 18.917969 17.617188 18.933594 17.402344 L 18.953125 16.933594 L 18.9375 15.53125 C 18.925781 15.359375 18.886719 15.191406 18.792969 15.03125 C 18.652344 14.773438 18.433594 14.640625 18.136719 14.625 C 17.835938 14.605469 17.570312 14.714844 17.320312 14.855469 C 17.144531 14.957031 17.066406 15.078125 17.082031 15.28125 L 17.082031 16.300781 Z M 30.222656 16.335938 L 30.222656 17.320312 C 30.222656 17.390625 30.226562 17.460938 30.234375 17.527344 C 30.242188 17.625 30.308594 17.703125 30.402344 17.722656 C 30.523438 17.757812 30.648438 17.78125 30.773438 17.785156 C 30.839844 17.792969 30.855469 17.820312 30.863281 17.878906 L 30.863281 17.925781 C 30.855469 18.171875 30.828125 18.199219 30.589844 18.183594 C 30.058594 18.152344 29.53125 18.15625 29 18.183594 L 28.796875 18.191406 C 28.753906 18.191406 28.746094 18.171875 28.734375 18.144531 C 28.710938 18.046875 28.710938 17.945312 28.734375 17.851562 C 28.738281 17.808594 28.765625 17.800781 28.808594 17.789062 C 28.910156 17.773438 28.996094 17.753906 29.09375 17.738281 C 29.269531 17.695312 29.332031 17.625 29.339844 17.445312 L 29.359375 16.855469 L 29.359375 15.140625 C 29.359375 15.015625 29.308594 14.9375 29.199219 14.882812 C 29.074219 14.8125 28.941406 14.765625 28.800781 14.714844 C 28.757812 14.703125 28.71875 14.6875 28.683594 14.667969 C 28.589844 14.601562 28.582031 14.511719 28.667969 14.441406 C 28.707031 14.410156 28.757812 14.390625 28.808594 14.386719 C 29.253906 14.316406 29.6875 14.21875 30.105469 14.050781 C 30.15625 14.03125 30.175781 14.042969 30.195312 14.085938 C 30.21875 14.128906 30.226562 14.175781 30.21875 14.226562 L 30.195312 14.554688 C 30.195312 14.59375 30.175781 14.65625 30.210938 14.671875 C 30.253906 14.699219 30.28125 14.636719 30.316406 14.621094 C 30.519531 14.449219 30.75 14.304688 30.992188 14.1875 C 31.207031 14.085938 31.429688 14.019531 31.683594 14.035156 C 32.152344 14.0625 32.484375 14.300781 32.703125 14.710938 C 32.8125 14.929688 32.863281 15.164062 32.882812 15.410156 L 32.902344 15.921875 L 32.910156 17.460938 C 32.917969 17.582031 32.960938 17.660156 33.078125 17.699219 C 33.199219 17.742188 33.328125 17.773438 33.453125 17.792969 C 33.566406 17.804688 33.574219 17.824219 33.582031 17.929688 L 33.582031 17.964844 C 33.566406 18.203125 33.550781 18.210938 33.316406 18.195312 C 32.792969 18.167969 32.273438 18.167969 31.753906 18.195312 C 31.683594 18.203125 31.613281 18.195312 31.546875 18.203125 C 31.507812 18.203125 31.476562 18.195312 31.472656 18.152344 C 31.457031 18.0625 31.441406 17.972656 31.464844 17.875 C 31.472656 17.832031 31.492188 17.8125 31.539062 17.804688 L 31.863281 17.753906 C 31.972656 17.726562 32.035156 17.652344 32.050781 17.546875 L 32.066406 17.351562 L 32.058594 15.894531 C 32.058594 15.726562 32.050781 15.558594 32.015625 15.390625 C 31.933594 15.035156 31.660156 14.78125 31.289062 14.742188 C 30.96875 14.710938 30.679688 14.792969 30.410156 14.96875 C 30.277344 15.050781 30.222656 15.167969 30.222656 15.316406 L 30.222656 16.371094 C 30.222656 16.347656 30.222656 16.347656 30.230469 16.347656 Z M 30.222656 16.335938 "/>
<path style=" stroke:none;fill-rule:nonzero;fill:rgb(76.078431%,74.901961%,74.901961%);fill-opacity:1;" d="M 50.65625 14.359375 C 50.578125 13.851562 50.390625 13.398438 50.0625 13 C 49.777344 12.648438 49.40625 12.375 48.988281 12.203125 C 48.550781 12.023438 48.082031 11.96875 47.605469 11.953125 C 47.410156 11.945312 44.746094 11.988281 44.550781 11.953125 C 44.5 11.945312 44.46875 11.960938 44.4375 12.003906 C 44.402344 12.054688 44.367188 12.105469 44.347656 12.164062 C 44.265625 12.351562 44.265625 12.335938 44.464844 12.363281 C 44.632812 12.394531 44.792969 12.40625 44.953125 12.457031 C 45.101562 12.503906 45.207031 12.589844 45.242188 12.75 C 45.253906 12.824219 45.269531 15.28125 45.269531 16.425781 L 45.242188 17.242188 C 45.234375 17.304688 45.226562 17.367188 45.207031 17.425781 C 45.175781 17.507812 45.128906 17.578125 45.046875 17.613281 C 44.953125 17.65625 44.855469 17.683594 44.753906 17.691406 C 44.5625 17.710938 44.535156 17.71875 44.472656 17.925781 L 44.453125 18.003906 C 44.4375 18.09375 44.445312 18.109375 44.535156 18.109375 L 46.621094 18.128906 L 47.441406 18.113281 L 48.003906 18.042969 C 48.644531 17.925781 49.21875 17.660156 49.707031 17.234375 C 49.984375 16.988281 50.214844 16.691406 50.375 16.355469 C 50.574219 15.964844 50.65625 15.539062 50.675781 15.109375 C 50.710938 14.863281 50.699219 14.613281 50.65625 14.359375 Z M 49.644531 15.351562 C 49.617188 15.796875 49.527344 16.230469 49.296875 16.621094 C 49.003906 17.128906 48.585938 17.488281 48.003906 17.613281 C 47.753906 17.664062 47.503906 17.6875 47.238281 17.652344 C 47.050781 17.632812 46.871094 17.613281 46.695312 17.546875 C 46.382812 17.4375 46.269531 17.242188 46.261719 16.9375 L 46.253906 12.730469 C 46.253906 12.476562 46.367188 12.421875 46.546875 12.414062 C 46.820312 12.394531 47.101562 12.402344 47.371094 12.429688 C 47.660156 12.457031 47.945312 12.527344 48.214844 12.632812 C 48.417969 12.714844 48.605469 12.832031 48.769531 12.976562 C 49.144531 13.296875 49.394531 13.699219 49.535156 14.175781 C 49.644531 14.558594 49.667969 14.949219 49.644531 15.339844 Z M 56.457031 16.035156 C 56.457031 15.992188 56.457031 15.957031 56.449219 15.917969 C 56.386719 15.53125 56.183594 15.238281 55.871094 15.015625 C 55.667969 14.871094 55.4375 14.773438 55.199219 14.703125 C 55.15625 14.6875 55.121094 14.675781 55.082031 14.667969 C 55.089844 14.632812 55.109375 14.625 55.128906 14.617188 C 55.269531 14.550781 55.402344 14.472656 55.519531 14.367188 C 55.738281 14.1875 55.878906 13.964844 55.953125 13.691406 C 55.996094 13.542969 55.996094 13.398438 55.980469 13.242188 C 55.957031 12.878906 55.769531 12.546875 55.472656 12.335938 C 55.148438 12.097656 54.773438 12 54.382812 11.996094 C 53.628906 11.980469 52.871094 11.996094 52.117188 11.996094 C 51.898438 11.996094 51.683594 12.007812 51.460938 11.972656 C 51.417969 11.96875 51.359375 11.953125 51.328125 12.003906 C 51.277344 12.09375 51.214844 12.183594 51.195312 12.289062 C 51.1875 12.335938 51.203125 12.363281 51.257812 12.371094 L 51.738281 12.441406 C 51.929688 12.46875 52.0625 12.574219 52.074219 12.742188 C 52.085938 12.859375 52.09375 12.972656 52.09375 13.089844 L 52.082031 14.394531 L 52.074219 16.976562 C 52.074219 17.128906 52.054688 17.277344 52.023438 17.429688 C 52.011719 17.53125 51.9375 17.613281 51.84375 17.640625 C 51.703125 17.679688 51.570312 17.722656 51.425781 17.722656 C 51.34375 17.714844 51.269531 17.765625 51.242188 17.839844 C 51.214844 17.90625 51.191406 17.972656 51.179688 18.039062 C 51.167969 18.121094 51.1875 18.148438 51.269531 18.140625 C 51.335938 18.132812 53.636719 18.1875 54.070312 18.148438 C 54.328125 18.117188 54.578125 18.082031 54.835938 18.007812 C 55.277344 17.867188 55.679688 17.664062 56 17.324219 C 56.265625 17.042969 56.421875 16.707031 56.433594 16.316406 C 56.453125 16.226562 56.453125 16.136719 56.453125 16.039062 Z M 53.070312 13.175781 L 53.09375 12.617188 C 53.09375 12.511719 53.132812 12.464844 53.238281 12.445312 C 53.40625 12.410156 53.574219 12.421875 53.742188 12.429688 C 53.910156 12.445312 54.070312 12.464844 54.234375 12.511719 C 54.542969 12.605469 54.78125 12.777344 54.921875 13.070312 C 54.984375 13.203125 55.015625 13.351562 55.019531 13.496094 C 55.023438 13.691406 55.011719 13.882812 54.933594 14.070312 C 54.816406 14.328125 54.628906 14.496094 54.355469 14.542969 C 54.082031 14.59375 53.308594 14.570312 53.191406 14.570312 C 53.085938 14.570312 53.078125 14.558594 53.078125 14.453125 L 53.078125 13.796875 C 53.0625 13.59375 53.058594 13.386719 53.070312 13.183594 Z M 55.339844 16.929688 C 55.21875 17.242188 55.003906 17.460938 54.695312 17.578125 C 54.527344 17.640625 54.363281 17.679688 54.1875 17.667969 C 53.96875 17.660156 53.753906 17.667969 53.539062 17.628906 C 53.246094 17.566406 53.113281 17.285156 53.089844 17.082031 C 53.054688 16.726562 53.078125 16.363281 53.070312 16.097656 L 53.070312 15.179688 C 53.070312 15.066406 53.085938 15.03125 53.203125 15.03125 L 53.859375 15.039062 L 54.304688 15.089844 C 54.621094 15.160156 54.90625 15.277344 55.128906 15.523438 C 55.3125 15.71875 55.410156 15.953125 55.429688 16.214844 C 55.449219 16.457031 55.4375 16.695312 55.347656 16.925781 Z M 55.339844 16.929688 "/>
<path style=" stroke:none;fill-rule:nonzero;fill:rgb(27.843137%,27.843137%,29.019608%);fill-opacity:1;" d="M 37.609375 14.828125 L 37.792969 14.855469 C 37.988281 14.863281 38.21875 14.792969 38.285156 14.519531 C 38.324219 14.390625 38.324219 14.253906 38.285156 14.121094 C 38.246094 14.121094 38.222656 14.15625 38.203125 14.171875 C 38.097656 14.253906 37.980469 14.304688 37.855469 14.316406 C 37.601562 14.347656 37.351562 14.332031 37.109375 14.242188 L 36.765625 14.125 C 36.527344 14.046875 36.277344 14.011719 36.023438 14.027344 C 35.667969 14.054688 35.335938 14.171875 35.019531 14.339844 C 34.6875 14.523438 34.449219 14.792969 34.335938 15.164062 C 34.273438 15.378906 34.265625 15.601562 34.292969 15.828125 C 34.363281 16.335938 34.628906 16.691406 35.105469 16.878906 C 35.132812 16.886719 35.152344 16.902344 35.179688 16.910156 C 35.242188 16.941406 35.25 16.976562 35.195312 17.027344 L 35.019531 17.144531 L 34.601562 17.402344 C 34.496094 17.464844 34.484375 17.515625 34.515625 17.625 C 34.558594 17.757812 34.636719 17.875 34.742188 17.960938 C 34.835938 18.042969 34.945312 18.109375 35.0625 18.15625 C 35.136719 18.191406 35.136719 18.207031 35.070312 18.269531 L 34.671875 18.554688 C 34.539062 18.65625 34.40625 18.757812 34.292969 18.890625 C 34.136719 19.058594 34.074219 19.292969 34.125 19.519531 C 34.179688 19.761719 34.304688 19.980469 34.488281 20.144531 C 34.671875 20.3125 34.890625 20.433594 35.128906 20.496094 C 35.519531 20.609375 35.925781 20.613281 36.324219 20.535156 C 36.894531 20.433594 37.394531 20.179688 37.789062 19.75 C 38.0625 19.460938 38.222656 19.128906 38.234375 18.726562 C 38.265625 18.25 37.949219 17.820312 37.480469 17.707031 L 37.105469 17.640625 L 35.953125 17.535156 C 35.828125 17.53125 35.703125 17.507812 35.597656 17.445312 C 35.464844 17.363281 35.429688 17.203125 35.515625 17.097656 C 35.578125 17.019531 35.652344 16.972656 35.75 16.964844 L 35.976562 16.945312 C 36.417969 16.898438 36.832031 16.710938 37.152344 16.40625 C 37.328125 16.246094 37.449219 16.042969 37.507812 15.8125 C 37.59375 15.511719 37.59375 15.199219 37.523438 14.894531 C 37.503906 14.816406 37.507812 14.8125 37.605469 14.824219 Z M 35.898438 18.304688 C 35.941406 18.308594 35.984375 18.304688 36.023438 18.304688 C 36.320312 18.316406 36.617188 18.339844 36.90625 18.414062 C 36.996094 18.441406 37.089844 18.476562 37.175781 18.519531 C 37.457031 18.671875 37.5625 18.9375 37.527344 19.226562 C 37.484375 19.539062 37.308594 19.761719 37.035156 19.910156 C 36.855469 20.011719 36.652344 20.054688 36.445312 20.078125 C 36.367188 20.082031 36.296875 20.078125 36.21875 20.078125 C 35.976562 20.082031 35.738281 20.054688 35.507812 19.957031 C 35.347656 19.894531 35.214844 19.804688 35.097656 19.679688 C 34.851562 19.433594 34.738281 18.988281 35.105469 18.625 C 35.328125 18.421875 35.578125 18.277344 35.898438 18.304688 Z M 36.695312 16.125 C 36.546875 16.496094 36.226562 16.609375 35.90625 16.558594 C 35.613281 16.515625 35.398438 16.355469 35.257812 16.089844 C 35.078125 15.734375 35.027344 15.367188 35.132812 14.980469 C 35.210938 14.695312 35.382812 14.480469 35.691406 14.429688 C 36.082031 14.359375 36.457031 14.5 36.652344 14.890625 C 36.757812 15.078125 36.800781 15.308594 36.800781 15.636719 C 36.792969 15.769531 36.765625 15.949219 36.695312 16.125 Z M 27.90625 15.652344 C 27.839844 15.273438 27.703125 14.933594 27.445312 14.648438 C 27.058594 14.222656 26.570312 14.035156 26.019531 14.03125 C 25.539062 14.023438 25.085938 14.164062 24.679688 14.417969 C 24.28125 14.65625 23.988281 15.035156 23.863281 15.484375 C 23.746094 15.890625 23.753906 16.300781 23.84375 16.710938 C 24.089844 17.816406 24.941406 18.289062 25.957031 18.21875 C 26.257812 18.199219 26.542969 18.101562 26.816406 17.96875 C 27.21875 17.777344 27.511719 17.480469 27.714844 17.082031 C 27.875 16.753906 27.945312 16.40625 27.9375 16.007812 L 27.902344 15.652344 Z M 26.914062 17.199219 C 26.8125 17.519531 26.53125 17.75 26.195312 17.785156 C 25.890625 17.828125 25.601562 17.75 25.34375 17.570312 C 25.15625 17.433594 25.007812 17.253906 24.90625 17.046875 C 24.617188 16.460938 24.570312 15.847656 24.714844 15.21875 C 24.761719 15.023438 24.863281 14.847656 25.007812 14.710938 C 25.265625 14.472656 25.566406 14.417969 25.902344 14.484375 C 26.222656 14.554688 26.46875 14.730469 26.667969 14.996094 C 26.867188 15.261719 26.960938 15.566406 27.015625 15.890625 C 27.042969 16.050781 27.042969 16.21875 27.050781 16.320312 C 27.050781 16.65625 27.023438 16.933594 26.917969 17.199219 Z M 43.148438 15.707031 C 43.097656 15.300781 42.949219 14.933594 42.660156 14.625 C 42.285156 14.214844 41.796875 14.039062 41.253906 14.03125 C 40.785156 14.027344 40.351562 14.160156 39.953125 14.390625 C 39.507812 14.652344 39.199219 15.03125 39.082031 15.539062 C 38.941406 16.097656 39 16.683594 39.25 17.199219 C 39.480469 17.6875 39.871094 18.003906 40.386719 18.140625 C 40.957031 18.296875 41.503906 18.226562 42.035156 17.96875 C 42.496094 17.746094 42.820312 17.394531 43.011719 16.921875 C 43.121094 16.640625 43.164062 16.34375 43.171875 15.992188 C 43.179688 15.929688 43.164062 15.816406 43.148438 15.707031 Z M 42.1875 17.109375 C 42.074219 17.488281 41.839844 17.730469 41.441406 17.785156 C 41.148438 17.828125 40.867188 17.757812 40.617188 17.589844 C 40.402344 17.445312 40.246094 17.25 40.136719 17.019531 C 40.011719 16.777344 39.941406 16.515625 39.914062 16.253906 C 39.871094 15.925781 39.871094 15.605469 39.945312 15.277344 C 39.960938 15.210938 39.984375 15.148438 40.011719 15.085938 C 40.207031 14.597656 40.636719 14.375 41.148438 14.488281 C 41.488281 14.5625 41.746094 14.753906 41.941406 15.039062 C 42.132812 15.316406 42.222656 15.625 42.265625 15.957031 C 42.285156 16.089844 42.292969 16.230469 42.285156 16.347656 C 42.285156 16.621094 42.265625 16.871094 42.183594 17.117188 Z M 42.1875 17.109375 "/>
</g>
</svg>
