<?xml version="1.0" encoding="UTF-8"?>
<svg xmlns="http://www.w3.org/2000/svg" xmlns:xlink="http://www.w3.org/1999/xlink" width="40pt" height="46pt" viewBox="0 0 40 46" version="1.1">
<g id="surface1">
<path style=" stroke:none;fill-rule:evenodd;fill:rgb(0%,0%,0%);fill-opacity:1;" d="M 0 0.00390625 L 0.00390625 0 L 0 -0.00390625 L 0.00390625 0 Z M 0.00390625 0 L 0 -0.00390625 Z M 0.00390625 0 "/>
<path style=" stroke:none;fill-rule:evenodd;fill:rgb(0%,0%,0%);fill-opacity:1;" d="M 0.00390625 0 L 0.00390625 0.00390625 L 0.00390625 0 L 0 0 L 0.00390625 0 L 0.00390625 -0.00390625 Z M 0.00390625 0 "/>
<path style="fill-rule:evenodd;fill:rgb(100%,100%,100%);fill-opacity:1;stroke-width:375;stroke-linecap:butt;stroke-linejoin:round;stroke:rgb(0%,0%,0%);stroke-opacity:1;stroke-miterlimit:4;" d="M 1436.901855 16439.969429 L 1436.901855 1439.066576 L 9771.533203 1439.066576 L 13938.098145 5605.984035 L 13938.098145 16439.969429 Z M 1436.901855 16439.969429 " transform="matrix(0.00260163,0,0,0.00257328,0,0)"/>
<path style=" stroke:none;fill-rule:evenodd;fill:rgb(69.803922%,69.803922%,69.803922%);fill-opacity:1;" d="M 25.417969 3.699219 L 36.261719 14.421875 L 25.417969 14.421875 Z M 25.417969 3.699219 Z M 36.261719 14.421875 Z M 36.261719 14.421875 "/>
<path style="fill:none;stroke-width:375;stroke-linecap:butt;stroke-linejoin:round;stroke:rgb(0%,0%,0%);stroke-opacity:1;stroke-miterlimit:4;" d="M 9770.031738 1437.548573 L 13938.098145 5604.466033 L 9770.031738 5604.466033 Z M 9770.031738 1437.548573 " transform="matrix(0.00260163,0,0,0.00257328,0,0)"/>
<path style=" stroke:none;fill-rule:evenodd;fill:rgb(100%,100%,100%);fill-opacity:1;" d="M 19.726562 30.878906 C 18.96875 30.878906 18.210938 31.628906 18.210938 32.378906 L 18.210938 38.386719 C 18.210938 39.136719 18.96875 39.886719 19.726562 39.886719 L 37.507812 39.886719 C 38.265625 39.886719 39.027344 39.136719 39.027344 38.386719 L 39.027344 32.378906 C 39.027344 31.628906 38.265625 30.878906 37.507812 30.878906 Z M 18.210938 30.878906 Z M 39.027344 39.886719 Z M 39.027344 39.886719 "/>
<path style="fill:none;stroke-width:200;stroke-linecap:butt;stroke-linejoin:round;stroke:rgb(20%,20%,20%);stroke-opacity:1;stroke-miterlimit:4;" d="M 7582.397461 11999.811481 C 7291.113281 11999.811481 6999.829102 12291.268003 6999.829102 12582.724524 L 6999.829102 14917.412704 C 6999.829102 15208.869226 7291.113281 15500.325747 7582.397461 15500.325747 L 14417.06543 15500.325747 C 14708.349609 15500.325747 15001.135254 15208.869226 15001.135254 14917.412704 L 15001.135254 12582.724524 C 15001.135254 12291.268003 14708.349609 11999.811481 14417.06543 11999.811481 Z M 7582.397461 11999.811481 " transform="matrix(0.00260163,0,0,0.00257328,0,0)"/>
<path style=" stroke:none;fill-rule:evenodd;fill:rgb(100%,40%,0%);fill-opacity:1;" d="M 19.773438 36.804688 L 21.292969 36.804688 L 21.292969 38.597656 L 19.773438 38.597656 Z M 22.234375 32.167969 L 24.867188 32.167969 L 25.078125 32.171875 L 25.273438 32.195312 L 25.453125 32.234375 L 25.621094 32.292969 L 25.703125 32.324219 L 25.777344 32.367188 L 25.851562 32.40625 L 25.917969 32.453125 L 25.984375 32.503906 L 26.042969 32.558594 L 26.101562 32.617188 L 26.15625 32.679688 L 26.257812 32.8125 L 26.300781 32.882812 L 26.347656 32.960938 L 26.386719 33.039062 L 26.417969 33.121094 L 26.480469 33.300781 L 26.527344 33.488281 L 26.558594 33.691406 L 26.582031 33.90625 L 26.585938 34.136719 L 26.578125 34.375 L 26.558594 34.601562 L 26.519531 34.808594 L 26.496094 34.910156 L 26.46875 35.007812 L 26.441406 35.101562 L 26.402344 35.191406 L 26.324219 35.363281 L 26.277344 35.441406 L 26.230469 35.515625 L 26.175781 35.589844 L 26.121094 35.660156 L 25.996094 35.792969 L 25.929688 35.847656 L 25.859375 35.898438 L 25.78125 35.953125 L 25.703125 35.996094 L 25.53125 36.074219 L 25.34375 36.132812 L 25.140625 36.175781 L 24.925781 36.203125 L 24.695312 36.207031 L 23.828125 36.207031 L 23.828125 38.597656 L 22.234375 38.597656 Z M 23.828125 34.90625 L 24.214844 34.90625 L 24.324219 34.902344 L 24.429688 34.890625 L 24.523438 34.878906 L 24.605469 34.859375 L 24.679688 34.828125 L 24.71875 34.8125 L 24.75 34.796875 L 24.78125 34.773438 L 24.808594 34.753906 L 24.835938 34.730469 L 24.882812 34.683594 L 24.941406 34.601562 L 24.957031 34.570312 L 24.972656 34.542969 L 24.988281 34.511719 L 25 34.480469 L 25.007812 34.445312 L 25.019531 34.414062 L 25.023438 34.382812 L 25.03125 34.34375 L 25.039062 34.308594 L 25.042969 34.269531 L 25.046875 34.195312 L 25.042969 34.121094 L 25.03125 34.046875 L 25.023438 33.980469 L 25.015625 33.949219 L 25.007812 33.914062 L 24.996094 33.882812 L 24.980469 33.851562 L 24.96875 33.820312 L 24.953125 33.789062 L 24.921875 33.734375 L 24.882812 33.683594 L 24.859375 33.65625 L 24.839844 33.632812 L 24.8125 33.609375 L 24.785156 33.589844 L 24.753906 33.570312 L 24.722656 33.554688 L 24.652344 33.523438 L 24.574219 33.5 L 24.484375 33.484375 L 24.386719 33.476562 L 24.277344 33.46875 L 23.828125 33.46875 Z M 27.421875 32.167969 L 29.003906 32.167969 L 29.003906 34.414062 L 30.738281 34.414062 L 30.738281 32.167969 L 32.328125 32.167969 L 32.328125 38.597656 L 30.738281 38.597656 L 30.738281 35.992188 L 29.003906 35.992188 L 29.003906 38.597656 L 27.421875 38.597656 Z M 33.375 32.167969 L 36.007812 32.167969 L 36.210938 32.171875 L 36.410156 32.195312 L 36.589844 32.234375 L 36.753906 32.292969 L 36.835938 32.324219 L 36.910156 32.367188 L 36.984375 32.40625 L 37.050781 32.453125 L 37.117188 32.503906 L 37.179688 32.558594 L 37.238281 32.617188 L 37.292969 32.679688 L 37.394531 32.8125 L 37.4375 32.882812 L 37.480469 32.960938 L 37.519531 33.039062 L 37.554688 33.121094 L 37.585938 33.210938 L 37.613281 33.300781 L 37.640625 33.394531 L 37.660156 33.488281 L 37.695312 33.691406 L 37.714844 33.90625 L 37.722656 34.136719 L 37.714844 34.375 L 37.691406 34.601562 L 37.65625 34.808594 L 37.632812 34.910156 L 37.605469 35.007812 L 37.574219 35.101562 L 37.539062 35.191406 L 37.460938 35.363281 L 37.414062 35.441406 L 37.3125 35.589844 L 37.253906 35.660156 L 37.195312 35.726562 L 37.128906 35.792969 L 37.0625 35.847656 L 36.992188 35.898438 L 36.914062 35.953125 L 36.835938 35.996094 L 36.667969 36.074219 L 36.480469 36.132812 L 36.28125 36.175781 L 36.0625 36.203125 L 35.828125 36.207031 L 34.964844 36.207031 L 34.964844 38.597656 L 33.375 38.597656 Z M 34.964844 34.90625 L 35.351562 34.90625 L 35.460938 34.902344 L 35.5625 34.890625 L 35.65625 34.878906 L 35.742188 34.859375 L 35.816406 34.828125 L 35.851562 34.8125 L 35.882812 34.796875 L 35.914062 34.773438 L 35.945312 34.753906 L 36.015625 34.683594 L 36.039062 34.65625 L 36.054688 34.628906 L 36.078125 34.601562 L 36.09375 34.570312 L 36.109375 34.542969 L 36.125 34.511719 L 36.132812 34.480469 L 36.144531 34.445312 L 36.15625 34.414062 L 36.160156 34.382812 L 36.171875 34.34375 L 36.175781 34.308594 L 36.179688 34.269531 L 36.179688 34.121094 L 36.171875 34.046875 L 36.15625 33.980469 L 36.148438 33.949219 L 36.140625 33.914062 L 36.132812 33.882812 L 36.101562 33.820312 L 36.089844 33.789062 L 36.054688 33.734375 L 36.019531 33.683594 L 35.996094 33.65625 L 35.976562 33.632812 L 35.945312 33.609375 L 35.921875 33.589844 L 35.890625 33.570312 L 35.859375 33.554688 L 35.824219 33.539062 L 35.785156 33.523438 L 35.707031 33.5 L 35.617188 33.484375 L 35.523438 33.476562 L 35.414062 33.46875 L 34.964844 33.46875 Z M 34.964844 34.90625 "/>
<path style="fill:none;stroke-width:26;stroke-linecap:butt;stroke-linejoin:miter;stroke:rgb(0%,0%,0%);stroke-opacity:1;stroke-miterlimit:4;" d="M 7600.415039 14302.621603 L 8184.484863 14302.621603 L 8184.484863 14999.384851 L 7600.415039 14999.384851 Z M 7600.415039 14302.621603 " transform="matrix(0.00260163,0,0,0.00257328,0,0)"/>
<path style="fill:none;stroke-width:26;stroke-linecap:butt;stroke-linejoin:miter;stroke:rgb(0%,0%,0%);stroke-opacity:1;stroke-miterlimit:4;" d="M 8546.337891 12500.752378 L 9558.325195 12500.752378 L 9639.404297 12502.27038 L 9714.477539 12511.378397 L 9783.544922 12526.558424 L 9848.10791 12549.328465 L 9879.638672 12561.472486 L 9908.166504 12578.170516 L 9936.694336 12593.350543 L 9962.219238 12611.566576 L 9987.744141 12631.300611 L 10010.266113 12652.552649 L 10032.788086 12675.32269 L 10053.808594 12699.610734 L 10092.84668 12751.222826 L 10109.362793 12778.546875 L 10127.380371 12808.906929 L 10142.39502 12839.266984 L 10154.406738 12871.145041 L 10178.430176 12940.973166 L 10196.447754 13013.837296 L 10208.459473 13092.773438 L 10217.468262 13176.263587 L 10218.969727 13265.825747 L 10215.966797 13358.423913 L 10208.459473 13446.468071 L 10193.444824 13526.922215 L 10184.436035 13566.390285 L 10173.925781 13604.340353 L 10163.415527 13640.772418 L 10148.400879 13675.686481 L 10118.371582 13742.478601 L 10100.354004 13772.838655 L 10082.336426 13801.680707 L 10061.315918 13830.522758 L 10040.29541 13857.846807 L 9992.248535 13909.458899 L 9966.723633 13930.710938 L 9939.697266 13950.444973 L 9909.667969 13971.697011 L 9879.638672 13988.395041 L 9813.574219 14018.755095 L 9741.503906 14041.525136 L 9663.427734 14058.223166 L 9580.847168 14068.849185 L 9492.260742 14070.367188 L 9158.935547 14070.367188 L 9158.935547 14999.384851 L 8546.337891 14999.384851 Z M 8546.337891 12500.752378 " transform="matrix(0.00260163,0,0,0.00257328,0,0)"/>
<path style="fill:none;stroke-width:26;stroke-linecap:butt;stroke-linejoin:miter;stroke:rgb(0%,0%,0%);stroke-opacity:1;stroke-miterlimit:4;" d="M 9158.935547 13564.872283 L 9307.580566 13564.872283 L 9349.621582 13563.35428 L 9390.161133 13558.800272 L 9426.196289 13554.246264 L 9457.727051 13546.65625 L 9486.254883 13534.512228 L 9501.269531 13528.440217 L 9513.28125 13522.368207 L 9525.292969 13513.26019 L 9535.803223 13505.670177 L 9546.313477 13496.56216 L 9564.331055 13478.346128 L 9586.853027 13446.468071 L 9592.858887 13434.324049 L 9598.864746 13423.69803 L 9604.870605 13411.554008 L 9609.375 13399.409986 L 9612.37793 13385.747962 L 9616.882324 13373.60394 L 9618.383789 13361.459918 L 9621.386719 13346.279891 L 9624.389648 13332.617867 L 9625.891113 13317.43784 L 9627.392578 13288.595788 L 9625.891113 13259.753736 L 9621.386719 13230.911685 L 9618.383789 13205.105639 L 9615.380859 13192.961617 L 9612.37793 13179.299592 L 9607.873535 13167.155571 L 9601.867676 13155.011549 L 9597.363281 13142.867527 L 9591.357422 13130.723505 L 9579.345703 13109.471467 L 9564.331055 13089.737432 L 9555.322266 13079.111413 L 9547.814941 13070.003397 L 9537.304688 13060.89538 L 9526.794434 13053.305367 L 9514.782715 13045.715353 L 9502.770996 13039.643342 L 9475.744629 13027.499321 L 9445.715332 13018.391304 L 9411.181641 13012.319293 L 9373.64502 13009.283288 L 9331.604004 13006.247283 L 9158.935547 13006.247283 Z M 9158.935547 13564.872283 " transform="matrix(0.00260163,0,0,0.00257328,0,0)"/>
<path style="fill:none;stroke-width:26;stroke-linecap:butt;stroke-linejoin:miter;stroke:rgb(0%,0%,0%);stroke-opacity:1;stroke-miterlimit:4;" d="M 10540.283203 12500.752378 L 11148.376465 12500.752378 L 11148.376465 13373.60394 L 11815.026855 13373.60394 L 11815.026855 12500.752378 L 12426.123047 12500.752378 L 12426.123047 14999.384851 L 11815.026855 14999.384851 L 11815.026855 13986.877038 L 11148.376465 13986.877038 L 11148.376465 14999.384851 L 10540.283203 14999.384851 Z M 10540.283203 12500.752378 " transform="matrix(0.00260163,0,0,0.00257328,0,0)"/>
<path style="fill:none;stroke-width:26;stroke-linecap:butt;stroke-linejoin:miter;stroke:rgb(0%,0%,0%);stroke-opacity:1;stroke-miterlimit:4;" d="M 12828.515625 12500.752378 L 13840.50293 12500.752378 L 13918.579102 12502.27038 L 13995.153809 12511.378397 L 14064.221191 12526.558424 L 14127.282715 12549.328465 L 14158.813477 12561.472486 L 14187.341309 12578.170516 L 14215.869141 12593.350543 L 14241.394043 12611.566576 L 14266.918945 12631.300611 L 14290.942383 12652.552649 L 14313.464355 12675.32269 L 14334.484863 12699.610734 L 14373.522949 12751.222826 L 14390.039062 12778.546875 L 14406.555176 12808.906929 L 14421.569824 12839.266984 L 14435.083008 12871.145041 L 14447.094727 12906.059103 L 14457.60498 12940.973166 L 14468.115234 12977.405231 L 14475.622559 13013.837296 L 14489.135742 13092.773438 L 14496.643066 13176.263587 L 14499.645996 13265.825747 L 14496.643066 13358.423913 L 14487.634277 13446.468071 L 14474.121094 13526.922215 L 14465.112305 13566.390285 L 14454.602051 13604.340353 L 14442.590332 13640.772418 L 14429.077148 13675.686481 L 14399.047852 13742.478601 L 14381.030273 13772.838655 L 14341.992188 13830.522758 L 14319.470215 13857.846807 L 14296.948242 13883.652853 L 14271.42334 13909.458899 L 14245.898438 13930.710938 L 14218.87207 13950.444973 L 14188.842773 13971.697011 L 14158.813477 13988.395041 L 14094.250488 14018.755095 L 14022.180176 14041.525136 L 13945.605469 14058.223166 L 13861.523438 14068.849185 L 13771.435547 14070.367188 L 13439.611816 14070.367188 L 13439.611816 14999.384851 L 12828.515625 14999.384851 Z M 12828.515625 12500.752378 " transform="matrix(0.00260163,0,0,0.00257328,0,0)"/>
<path style="fill:none;stroke-width:26;stroke-linecap:butt;stroke-linejoin:miter;stroke:rgb(0%,0%,0%);stroke-opacity:1;stroke-miterlimit:4;" d="M 13439.611816 13564.872283 L 13588.256836 13564.872283 L 13630.297852 13563.35428 L 13669.335938 13558.800272 L 13705.371094 13554.246264 L 13738.40332 13546.65625 L 13766.931152 13534.512228 L 13780.444336 13528.440217 L 13792.456055 13522.368207 L 13804.467773 13513.26019 L 13816.479492 13505.670177 L 13843.505859 13478.346128 L 13852.514648 13467.720109 L 13858.520508 13457.09409 L 13867.529297 13446.468071 L 13873.535156 13434.324049 L 13879.541016 13423.69803 L 13885.546875 13411.554008 L 13888.549805 13399.409986 L 13893.054199 13385.747962 L 13897.558594 13373.60394 L 13899.060059 13361.459918 L 13903.564453 13346.279891 L 13905.065918 13332.617867 L 13906.567383 13317.43784 L 13906.567383 13259.753736 L 13903.564453 13230.911685 L 13897.558594 13205.105639 L 13894.555664 13192.961617 L 13891.552734 13179.299592 L 13888.549805 13167.155571 L 13876.538086 13142.867527 L 13872.033691 13130.723505 L 13858.520508 13109.471467 L 13845.007324 13089.737432 L 13835.998535 13079.111413 L 13828.491211 13070.003397 L 13816.479492 13060.89538 L 13807.470703 13053.305367 L 13795.458984 13045.715353 L 13783.447266 13039.643342 L 13769.934082 13033.571332 L 13754.919434 13027.499321 L 13724.890137 13018.391304 L 13690.356445 13012.319293 L 13654.321289 13009.283288 L 13612.280273 13006.247283 L 13439.611816 13006.247283 Z M 13439.611816 13564.872283 " transform="matrix(0.00260163,0,0,0.00257328,0,0)"/>
</g>
</svg>
