<?xml version="1.0" encoding="UTF-8"?>
<svg xmlns="http://www.w3.org/2000/svg" xmlns:xlink="http://www.w3.org/1999/xlink" width="20pt" height="20pt" viewBox="0 0 20 20" version="1.1">
<defs>
<linearGradient id="linear0" gradientUnits="userSpaceOnUse" x1="9.993" y1="9.993" x2="40.615" y2="40.615" gradientTransform="matrix(0.416667,0,0,0.416667,0,0)">
<stop offset="0" style="stop-color:rgb(16.470588%,64.313725%,95.686275%);stop-opacity:1;"/>
<stop offset="1" style="stop-color:rgb(0%,47.843137%,85.098039%);stop-opacity:1;"/>
</linearGradient>
</defs>
<g id="surface1">
<path style=" stroke:none;fill-rule:nonzero;fill:url(#linear0);" d="M 10 1.667969 C 5.398438 1.667969 1.667969 5.398438 1.667969 10 C 1.667969 14.601562 5.398438 18.332031 10 18.332031 C 14.601562 18.332031 18.332031 14.601562 18.332031 10 C 18.332031 5.398438 14.601562 1.667969 10 1.667969 Z M 10 1.667969 "/>
<path style=" stroke:none;fill-rule:nonzero;fill:rgb(100%,100%,100%);fill-opacity:1;" d="M 11.128906 12.207031 L 13.285156 12.207031 L 13.625 10.019531 L 11.128906 10.019531 L 11.128906 8.820312 C 11.128906 7.910156 11.425781 7.101562 12.277344 7.101562 L 13.644531 7.101562 L 13.644531 5.191406 C 13.402344 5.160156 12.894531 5.089844 11.933594 5.089844 C 9.929688 5.089844 8.753906 6.148438 8.753906 8.5625 L 8.753906 10.019531 L 6.691406 10.019531 L 6.691406 12.210938 L 8.753906 12.210938 L 8.753906 18.230469 C 9.160156 18.292969 9.574219 18.332031 10 18.332031 C 10.382812 18.332031 10.757812 18.296875 11.128906 18.25 Z M 11.128906 12.207031 "/>
</g>
</svg>
