<?xml version="1.0" encoding="UTF-8"?>
<svg xmlns="http://www.w3.org/2000/svg" xmlns:xlink="http://www.w3.org/1999/xlink" width="20pt" height="20pt" viewBox="0 0 20 20" version="1.1">
<defs>
<radialGradient id="radial0" gradientUnits="userSpaceOnUse" cx="19.38" cy="42.035" fx="19.38" fy="42.035" r="44.899" gradientTransform="matrix(0.416667,0,0,0.416667,0,0)">
<stop offset="0" style="stop-color:rgb(100%,86.666667%,33.333333%);stop-opacity:1;"/>
<stop offset="0.328" style="stop-color:rgb(100%,32.941176%,24.705882%);stop-opacity:1;"/>
<stop offset="0.348" style="stop-color:rgb(98.823529%,32.156863%,27.058824%);stop-opacity:1;"/>
<stop offset="0.504" style="stop-color:rgb(90.196078%,27.843137%,44.313725%);stop-opacity:1;"/>
<stop offset="0.643" style="stop-color:rgb(83.529412%,24.313725%,56.862745%);stop-opacity:1;"/>
<stop offset="0.761" style="stop-color:rgb(80%,22.352941%,64.313725%);stop-opacity:1;"/>
<stop offset="0.841" style="stop-color:rgb(78.431373%,21.568627%,67.058824%);stop-opacity:1;"/>
</radialGradient>
<radialGradient id="radial1" gradientUnits="userSpaceOnUse" cx="11.786" cy="5.54" fx="11.786" fy="5.54" r="29.813" gradientTransform="matrix(0.416667,0,0,0.277625,0,0.770417)">
<stop offset="0" style="stop-color:rgb(25.490196%,40.784314%,78.823529%);stop-opacity:1;"/>
<stop offset="0.999" style="stop-color:rgb(25.490196%,40.784314%,78.823529%);stop-opacity:0;"/>
</radialGradient>
</defs>
<g id="surface1">
<path style=" stroke:none;fill-rule:nonzero;fill:url(#radial0);" d="M 14.171875 17.496094 L 5.839844 17.503906 C 4.007812 17.503906 2.503906 16.007812 2.503906 14.171875 L 2.496094 5.839844 C 2.496094 4.007812 3.992188 2.503906 5.824219 2.503906 L 14.160156 2.496094 C 15.992188 2.496094 17.492188 3.992188 17.496094 5.824219 L 17.503906 14.160156 C 17.503906 15.992188 16.007812 17.496094 14.171875 17.496094 Z M 14.171875 17.496094 "/>
<path style=" stroke:none;fill-rule:nonzero;fill:url(#radial1);" d="M 14.171875 17.496094 L 5.839844 17.503906 C 4.007812 17.503906 2.503906 16.007812 2.503906 14.171875 L 2.496094 5.839844 C 2.496094 4.007812 3.992188 2.503906 5.824219 2.503906 L 14.160156 2.496094 C 15.992188 2.496094 17.492188 3.992188 17.496094 5.824219 L 17.503906 14.160156 C 17.503906 15.992188 16.007812 17.496094 14.171875 17.496094 Z M 14.171875 17.496094 "/>
<path style=" stroke:none;fill-rule:nonzero;fill:rgb(100%,100%,100%);fill-opacity:1;" d="M 10 12.917969 C 8.390625 12.917969 7.082031 11.609375 7.082031 10 C 7.082031 8.390625 8.390625 7.082031 10 7.082031 C 11.609375 7.082031 12.917969 8.390625 12.917969 10 C 12.917969 11.609375 11.609375 12.917969 10 12.917969 Z M 10 7.917969 C 8.851562 7.917969 7.917969 8.851562 7.917969 10 C 7.917969 11.148438 8.851562 12.082031 10 12.082031 C 11.148438 12.082031 12.082031 11.148438 12.082031 10 C 12.082031 8.851562 11.148438 7.917969 10 7.917969 Z M 10 7.917969 "/>
<path style=" stroke:none;fill-rule:nonzero;fill:rgb(100%,100%,100%);fill-opacity:1;" d="M 13.75 6.875 C 13.75 7.21875 13.46875 7.5 13.125 7.5 C 12.78125 7.5 12.5 7.21875 12.5 6.875 C 12.5 6.53125 12.78125 6.25 13.125 6.25 C 13.46875 6.25 13.75 6.53125 13.75 6.875 Z M 13.75 6.875 "/>
<path style=" stroke:none;fill-rule:nonzero;fill:rgb(100%,100%,100%);fill-opacity:1;" d="M 12.5 15.417969 L 7.5 15.417969 C 5.890625 15.417969 4.582031 14.109375 4.582031 12.5 L 4.582031 7.5 C 4.582031 5.890625 5.890625 4.582031 7.5 4.582031 L 12.5 4.582031 C 14.109375 4.582031 15.417969 5.890625 15.417969 7.5 L 15.417969 12.5 C 15.417969 14.109375 14.109375 15.417969 12.5 15.417969 Z M 7.5 5.417969 C 6.351562 5.417969 5.417969 6.351562 5.417969 7.5 L 5.417969 12.5 C 5.417969 13.648438 6.351562 14.582031 7.5 14.582031 L 12.5 14.582031 C 13.648438 14.582031 14.582031 13.648438 14.582031 12.5 L 14.582031 7.5 C 14.582031 6.351562 13.648438 5.417969 12.5 5.417969 Z M 7.5 5.417969 "/>
</g>
</svg>
