<?xml version="1.0" encoding="UTF-8"?>
<svg xmlns="http://www.w3.org/2000/svg" xmlns:xlink="http://www.w3.org/1999/xlink" width="20pt" height="20pt" viewBox="0 0 20 20" version="1.1">
<g id="surface1">
<path style=" stroke:none;fill-rule:nonzero;fill:rgb(0.784314%,53.333333%,81.960784%);fill-opacity:1;" d="M 17.5 15.417969 C 17.5 16.566406 16.566406 17.5 15.417969 17.5 L 4.582031 17.5 C 3.433594 17.5 2.5 16.566406 2.5 15.417969 L 2.5 4.582031 C 2.5 3.433594 3.433594 2.5 4.582031 2.5 L 15.417969 2.5 C 16.566406 2.5 17.5 3.433594 17.5 4.582031 Z M 17.5 15.417969 "/>
<path style=" stroke:none;fill-rule:nonzero;fill:rgb(100%,100%,100%);fill-opacity:1;" d="M 5 7.917969 L 7.082031 7.917969 L 7.082031 15 L 5 15 Z M 6.035156 7.082031 L 6.023438 7.082031 C 5.402344 7.082031 5 6.621094 5 6.042969 C 5 5.449219 5.414062 5 6.046875 5 C 6.679688 5 7.070312 5.449219 7.082031 6.042969 C 7.082031 6.621094 6.679688 7.082031 6.035156 7.082031 Z M 15 15 L 12.917969 15 L 12.917969 11.207031 C 12.917969 10.292969 12.40625 9.667969 11.585938 9.667969 C 10.960938 9.667969 10.621094 10.089844 10.457031 10.496094 C 10.398438 10.644531 10.417969 11.046875 10.417969 11.25 L 10.417969 15 L 8.332031 15 L 8.332031 7.917969 L 10.417969 7.917969 L 10.417969 9.007812 C 10.71875 8.542969 11.1875 7.917969 12.390625 7.917969 C 13.882812 7.917969 15 8.855469 15 10.949219 Z M 15 15 "/>
</g>
</svg>
