<?xml version="1.0" encoding="UTF-8"?>
<svg xmlns="http://www.w3.org/2000/svg" xmlns:xlink="http://www.w3.org/1999/xlink" width="45pt" height="45pt" viewBox="0 0 45 45" version="1.1">
<g id="surface1">
<path style=" stroke:none;fill-rule:nonzero;fill:rgb(0%,0%,0%);fill-opacity:1;" d="M 22.601562 32.132812 C 19.945312 32.132812 17.34375 31.210938 15.277344 29.535156 L 6.007812 22.007812 C 2.25 19.066406 2.25 13.042969 6.007812 10.101562 L 15.277344 2.578125 C 19.394531 -0.859375 25.804688 -0.859375 29.917969 2.578125 L 39.195312 10.101562 C 41.5625 12.03125 42.566406 15.171875 41.75 18.121094 C 41.488281 19.058594 40.515625 19.609375 39.574219 19.347656 C 38.632812 19.085938 38.082031 18.113281 38.347656 17.175781 C 38.785156 15.585938 38.25 13.886719 36.96875 12.851562 L 27.695312 5.320312 C 24.742188 2.925781 20.457031 2.925781 17.507812 5.320312 L 8.230469 12.851562 C 6.207031 14.429688 6.207031 17.679688 8.230469 19.261719 L 17.507812 26.789062 C 20.453125 29.179688 24.726562 29.183594 27.675781 26.800781 L 29.226562 25.484375 C 29.96875 24.851562 31.085938 24.941406 31.71875 25.683594 C 32.351562 26.429688 32.261719 27.542969 31.515625 28.175781 L 29.949219 29.507812 C 29.941406 29.519531 29.929688 29.527344 29.917969 29.535156 C 27.859375 31.210938 25.257812 32.132812 22.601562 32.132812 Z M 29.917969 42.601562 L 39.195312 35.078125 C 42.953125 32.140625 42.949219 26.117188 39.195312 23.175781 L 29.917969 15.648438 C 25.804688 12.210938 19.394531 12.210938 15.277344 15.648438 L 13.972656 16.722656 C 12.21875 18.28125 14.34375 20.867188 16.210938 19.453125 L 17.511719 18.390625 C 20.460938 15.996094 24.742188 15.996094 27.695312 18.390625 L 36.96875 25.917969 C 38.992188 27.503906 38.992188 30.75 36.96875 32.335938 L 27.695312 39.859375 C 24.742188 42.257812 20.457031 42.257812 17.507812 39.859375 L 8.230469 32.335938 C 7.058594 31.386719 6.5 29.871094 6.769531 28.382812 C 6.945312 27.421875 6.304688 26.503906 5.347656 26.328125 C 4.386719 26.15625 3.46875 26.789062 3.292969 27.753906 C 2.792969 30.507812 3.832031 33.316406 6.007812 35.078125 L 15.277344 42.601562 C 17.34375 44.277344 19.945312 45.199219 22.601562 45.199219 C 25.257812 45.199219 27.859375 44.277344 29.917969 42.601562 Z M 29.917969 42.601562 "/>
</g>
</svg>
